# xmcd CD database file
#
# Track frame offsets:
#	150
#	43760
#	118745
#	134701
#	149045
#	160938
#	173988
#	224724
#	239614
#	260914
#
# Disc length: 3740 seconds
#
# Revision: 0
# Processed by: cddbd v1.4PL0 Copyright (c) Steve Scherf et al.
# Submitted via: CDex 1.50
#
DISCID=af0e9a0a
DTITLE=Stevie Ray Vaughan - Alpine Valley [CD2]
DYEAR=1900
DGENRE=Blues
TTITLE0=Voodoo Chile
TTITLE1=Sweet Home Chicago
TTITLE2=Pride And Joy
TTITLE3=Mary Had A Little Lamb
TTITLE4=Love Struck Baby
TTITLE5=Testify
TTITLE6=Voodoo Chile
TTITLE7=Mary Had A Little Lamb
TTITLE8=Couldn't Stand The Weather
TTITLE9=Cold Shot
EXTD=
EXTT0=
EXTT1=
EXTT2=
EXTT3=
EXTT4=
EXTT5=
EXTT6=
EXTT7=
EXTT8=
EXTT9=
PLAYORDER=
